<?xml version="1.0" encoding="utf-8"?>
<!-- Generator: Adobe Illustrator 17.0.0, SVG Export Plug-In . SVG Version: 6.00 Build 0)  -->
<!DOCTYPE svg PUBLIC "-//W3C//DTD SVG 1.1//EN" "http://www.w3.org/Graphics/SVG/1.1/DTD/svg11.dtd">
<svg version="1.1" id="Layer_1" xmlns="http://www.w3.org/2000/svg" xmlns:xlink="http://www.w3.org/1999/xlink" x="0px" y="0px"
	 width="512px" height="512px" viewBox="0 0 512 512" enable-background="new 0 0 512 512" xml:space="preserve">
<g>
	<g>
		<polygon fill="#122135" points="11.629,354.002 11.629,42.066 231.611,115.394 231.611,231.719 77.622,170.765 76.5,387.789 		"/>
		<path fill="#122135" d="M12.629,43.454l217.982,72.661v114.133L79.35,170.373l-2.721-1.077l-0.015,2.926l-1.106,213.922
			l-62.879-32.749V43.454 M10.629,40.679v313.93l66.862,34.824l1.123-217.2l153.997,60.957V114.673L10.629,40.679L10.629,40.679z"/>
	</g>
	<g>
		<polygon fill="#122135" points="153.354,427.816 153.354,316.48 231.611,352.349 231.611,468.575 		"/>
		<path fill="#122135" d="M154.354,318.039l76.257,34.951v113.937l-76.257-39.717V318.039 M152.354,314.922v113.501l80.257,41.801
			V351.707L152.354,314.922L152.354,314.922z"/>
	</g>
	<g>
		<polygon fill="#00ABE4" points="281.019,115.394 501,42.066 501,143.622 359.114,199.699 359.114,316.48 501,251.455 501,353.078 
			281.019,468.569 		"/>
		<path fill="#00ABE4" d="M500,43.454v99.488l-140.621,55.577l-1.265,0.5v1.36v114.544v3.117l2.833-1.298L500,253.014v99.46
			L282.018,466.915V116.114L500,43.454 M502,40.679l-221.982,73.994v355.551L502,353.682V249.897l-141.886,65.025V200.379
			L502,144.302V40.679L502,40.679z"/>
	</g>
</g>
</svg>
